<svg xmlns="http://www.w3.org/2000/svg" viewBox="0 0 880 430" width="880" height="430" font-family="ui-monospace,'SFMono-Regular','Cascadia Mono',Menlo,Consolas,'Liberation Mono',monospace">
<defs><linearGradient id="acc" x1="0" y1="0" x2="1" y2="0"><stop stop-color="#FF4D4D"/><stop offset="1" stop-color="#7A0C0C"/></linearGradient></defs>
<style>
.fade{animation:fade .9s ease both}
@keyframes fade{from{opacity:0}}
.blink{animation:blink 1.1s steps(2,start) infinite}
@keyframes blink{50%{opacity:0}}
.ping{transform-box:fill-box;transform-origin:center;animation:ping 2.2s ease-out infinite}
@keyframes ping{0%{transform:scale(.55);opacity:.8}100%{transform:scale(1.7);opacity:0}}
.draw{stroke-dasharray:700;animation:draw 2.4s ease both .3s}
@keyframes draw{from{stroke-dashoffset:700}to{stroke-dashoffset:0}}
.grow{transform-box:fill-box;transform-origin:left;animation:grow 1.4s ease both .4s}
@keyframes grow{from{transform:scaleX(0)}to{transform:scaleX(1)}}
.webDraw{stroke-dasharray:480;animation:webDraw 1.8s ease both .8s}
@keyframes webDraw{from{stroke-dashoffset:480}to{stroke-dashoffset:0}}
.webFill{animation:webFill 1.8s ease both .8s}
@keyframes webFill{from{opacity:0}to{opacity:1}}
</style>
<text x="10" y="26" font-size="12" fill="#C1121F" font-weight="600" text-anchor="start" letter-spacing="3" class="fade">02 — system map</text><line x1="158" y1="21" x2="870" y2="21" stroke="#d0d7de" stroke-width="1"/>
<line x1="440" y1="192" x2="440" y2="86" stroke="#d0d7de" stroke-width="1" stroke-dasharray="3 5"/>
<line x1="478.1" y1="214" x2="569.9" y2="161" stroke="#d0d7de" stroke-width="1" stroke-dasharray="3 5"/>
<line x1="478.1" y1="258" x2="569.9" y2="311" stroke="#d0d7de" stroke-width="1" stroke-dasharray="3 5"/>
<line x1="440" y1="280" x2="440" y2="386" stroke="#d0d7de" stroke-width="1" stroke-dasharray="3 5"/>
<line x1="401.9" y1="258" x2="310.1" y2="311" stroke="#d0d7de" stroke-width="1" stroke-dasharray="3 5"/>
<line x1="401.9" y1="214" x2="310.1" y2="161" stroke="#d0d7de" stroke-width="1" stroke-dasharray="3 5"/>
<polygon class="webFill" points="440,206 517.9,191 504.9,273.5 440,356 407.5,254.8 388,206" fill="#C1121F" fill-opacity="0.13" stroke="none"/>
<polygon class="webDraw" points="440,206 517.9,191 504.9,273.5 440,356 407.5,254.8 388,206" fill="none" stroke="#C1121F" stroke-width="2" stroke-linejoin="round"/>
<circle cx="440" cy="206" r="3" fill="#C1121F"/>
<circle cx="517.9" cy="191" r="3" fill="#C1121F"/>
<circle cx="504.9" cy="273.5" r="3" fill="#C1121F"/>
<circle cx="440" cy="356" r="3" fill="#C1121F"/>
<circle cx="407.5" cy="254.8" r="3" fill="#C1121F"/>
<circle cx="388" cy="206" r="3" fill="#C1121F"/>
<circle cx="440" cy="86" r="3.5" fill="#C1121F"/>
<text x="440" y="72" font-size="14" fill="#0d1117" font-weight="600" text-anchor="middle">cloud</text>
<text x="440" y="110" font-size="11" fill="#57606a" font-weight="400" text-anchor="middle">docker · ci/cd · deploys</text>
<circle cx="569.9" cy="161" r="3.5" fill="#C1121F"/>
<text x="569.9" y="147" font-size="14" fill="#0d1117" font-weight="600" text-anchor="middle">research</text>
<text x="569.9" y="185" font-size="11" fill="#57606a" font-weight="400" text-anchor="middle">computer vision · hyper response systems</text>
<circle cx="569.9" cy="311" r="3.5" fill="#C1121F"/>
<text x="569.9" y="297" font-size="14" fill="#0d1117" font-weight="600" text-anchor="middle">embedded systems</text>
<text x="569.9" y="335" font-size="11" fill="#57606a" font-weight="400" text-anchor="middle">computer vision · ai · robotic integration</text>
<circle cx="440" cy="386" r="3.5" fill="#C1121F"/>
<text x="440" y="372" font-size="14" fill="#0d1117" font-weight="600" text-anchor="middle">web</text>
<text x="440" y="410" font-size="11" fill="#57606a" font-weight="400" text-anchor="middle">tanstack · react · next.js · typescript</text>
<circle cx="310.1" cy="311" r="3.5" fill="#C1121F"/>
<text x="310.1" y="297" font-size="14" fill="#0d1117" font-weight="600" text-anchor="middle">cyber security</text>
<text x="310.1" y="335" font-size="11" fill="#57606a" font-weight="400" text-anchor="middle">red teaming · osint · ctf</text>
<circle cx="310.1" cy="161" r="3.5" fill="#C1121F"/>
<text x="310.1" y="147" font-size="14" fill="#0d1117" font-weight="600" text-anchor="middle">database</text>
<text x="310.1" y="185" font-size="11" fill="#57606a" font-weight="400" text-anchor="middle">mongodb · neondb · supabase</text>
<circle class="ping" cx="440" cy="236" r="34" fill="none" stroke="#C1121F" stroke-width="1"/>
<rect x="370" y="217" width="140" height="38" rx="7" fill="none" stroke="#C1121F" stroke-width="1.5"/>
<text x="440" y="241" font-size="14" fill="#0d1117" font-weight="700" text-anchor="middle" letter-spacing="1">sakif16</text>
</svg>
